<?xml version="1.0" encoding="utf-8"?>
<!-- Generator: Adobe Illustrator 26.0.1, SVG Export Plug-In . SVG Version: 6.00 Build 0)  -->
<svg version="1.1" id="Layer_1" xmlns="http://www.w3.org/2000/svg" xmlns:xlink="http://www.w3.org/1999/xlink" x="0px" y="0px"
	 viewBox="0 0 32.28 31.9" style="enable-background:new 0 0 32.28 31.9;" xml:space="preserve">
<style type="text/css">
	.st0{clip-path:url(#SVGID_00000173844302312451898060000016460796982528635561_);}
	.st1{fill:#43BD8E;}
	.st2{clip-path:url(#SVGID_00000175308128523229116090000002124044279574026381_);}
	.st3{fill:#F7F7F8;}
</style>
<g id="Group_9" transform="matrix(1, -0.017, 0.017, 1, 8.024, 11.713)">
	<g>
		<g>
			<defs>
				
					<rect id="SVGID_1_" x="-1.38" y="-3.18" transform="matrix(0.9994 -0.034 0.034 0.9994 -0.2452 0.351)" width="23.16" height="21.14"/>
			</defs>
			<clipPath id="SVGID_00000029736656098285031280000012655048080771233673_">
				<use xlink:href="#SVGID_1_"  style="overflow:visible;"/>
			</clipPath>
			<g id="Group_4" style="clip-path:url(#SVGID_00000029736656098285031280000012655048080771233673_);">
				<path id="Path_4" class="st1" d="M19.42-3.04c-0.01-0.02-0.03-0.04-0.04-0.06C19.29-2.68,17.82,3.48,9.1,4.35
					c-8.99,0.9-10.44,9.44-10.44,9.44c1.71,1.91,3.99,3.22,6.5,3.74c7.19,1.75,14.44-2.65,16.2-9.85c0.2-0.81,0.32-1.65,0.36-2.48
					c0.01-0.2,0.02-0.41,0.02-0.61C21.76,1.87,20.95-0.79,19.42-3.04"/>
				<path id="Path_5" class="st1" d="M19.42-3.04c-0.01-0.02-0.03-0.04-0.04-0.06C19.29-2.68,17.82,3.48,9.1,4.35
					c-8.99,0.9-10.44,9.44-10.44,9.44c1.71,1.91,3.99,3.22,6.5,3.74c7.19,1.75,14.44-2.65,16.2-9.85c0.2-0.81,0.32-1.65,0.36-2.48
					c0.01-0.2,0.02-0.41,0.02-0.61C21.76,1.87,20.95-0.79,19.42-3.04z"/>
			</g>
		</g>
	</g>
</g>
<g id="Group_8" transform="matrix(1, -0.017, 0.017, 1, 0, 0.734)">
	<g>
		<g>
			<defs>
				
					<rect id="SVGID_00000006669190010426517280000001599907004333987979_" x="1.89" y="1.45" transform="matrix(0.9994 -0.034 0.034 0.9994 -0.4277 0.4887)" width="24.54" height="22.75"/>
			</defs>
			<clipPath id="SVGID_00000096053703958345511320000005860512733673773750_">
				<use xlink:href="#SVGID_00000006669190010426517280000001599907004333987979_"  style="overflow:visible;"/>
			</clipPath>
			<g id="Group_6" style="clip-path:url(#SVGID_00000096053703958345511320000005860512733673773750_);">
				<path id="Path_6" class="st3" d="M15.44,1.48C8.04,1.42,1.99,7.36,1.93,14.77c-0.03,3.48,1.3,6.84,3.7,9.36
					c0.03-0.14,1.56-8.51,10.47-9.39c8.73-0.86,10.2-7.01,10.29-7.43C23.91,3.69,19.82,1.51,15.44,1.48"/>
				<path id="Path_7" class="st3" d="M15.44,1.48C8.04,1.42,1.99,7.36,1.93,14.77c-0.03,3.48,1.3,6.84,3.7,9.36
					c0.03-0.14,1.56-8.51,10.47-9.39c8.73-0.86,10.2-7.01,10.29-7.43C23.91,3.69,19.82,1.51,15.44,1.48z"/>
			</g>
		</g>
	</g>
</g>
<circle id="Ellipse_3" cx="19.51" cy="8.12" r="1.75"/>
<circle id="Ellipse_4" cx="13.79" cy="24.89" r="1.75"/>
</svg>
